<?xml version="1.0" encoding="utf-8"?>
<!-- Generator: Adobe Illustrator 26.5.0, SVG Export Plug-In . SVG Version: 6.00 Build 0)  -->
<svg version="1.1" id="Layer_1" xmlns="http://www.w3.org/2000/svg" xmlns:xlink="http://www.w3.org/1999/xlink" x="0px" y="0px"
	 viewBox="0 0 32 32" style="enable-background:new 0 0 32 32;" xml:space="preserve">
<style type="text/css">
	.st0{fill:#252525;}
	.st1{fill:#F5F5F5;}
</style>
<rect x="0" y="0" transform="matrix(-1 -1.224647e-16 1.224647e-16 -1 32 32)" class="st0" width="32" height="32"/>
<g>
	<g>
		<path class="st1" d="M16,4.65c1.25,0,2.45,0.6,3.49,1.73c0.14,0.16,0.32,0.28,0.51,0.37c1.17,0.5,2.22,1.21,3.12,2.12
			c0.91,0.91,1.62,1.96,2.12,3.12c0.08,0.19,0.21,0.37,0.37,0.51c1.14,1.04,1.73,2.25,1.73,3.49c0,1.25-0.6,2.45-1.73,3.49
			c-0.16,0.14-0.28,0.32-0.37,0.51c-0.5,1.17-1.21,2.22-2.12,3.12c-0.91,0.91-1.96,1.62-3.12,2.12c-0.19,0.08-0.37,0.21-0.51,0.37
			c-1.04,1.14-2.25,1.73-3.5,1.73c-1.25,0-2.45-0.6-3.5-1.74c-0.14-0.16-0.32-0.28-0.51-0.37c-1.17-0.5-2.21-1.21-3.12-2.12
			c-0.9-0.9-1.61-1.95-2.12-3.12c-0.08-0.19-0.21-0.37-0.37-0.51c-1.14-1.04-1.74-2.25-1.74-3.5c0-1.25,0.6-2.45,1.74-3.5
			c0.16-0.14,0.28-0.32,0.37-0.51c0.5-1.17,1.21-2.21,2.12-3.12c0.9-0.9,1.95-1.61,3.12-2.12c0.19-0.08,0.37-0.21,0.51-0.37
			C13.55,5.25,14.75,4.65,16,4.65L16,4.65z M19.9,7.16c-0.18-0.25-0.44-0.44-0.73-0.53C18.15,6.28,17.09,6.11,16,6.11
			c-1.09,0-2.16,0.17-3.18,0.52c-0.29,0.1-0.54,0.29-0.72,0.53c-0.17,0.23-0.34,0.48-0.49,0.74c-0.91,1.51-2.19,2.79-3.7,3.7
			c-0.26,0.16-0.51,0.32-0.74,0.49c-0.25,0.18-0.43,0.43-0.53,0.72c-0.7,2.07-0.7,4.29,0,6.36c0.1,0.29,0.29,0.54,0.53,0.72
			c0.23,0.17,0.48,0.34,0.74,0.49c1.51,0.91,2.79,2.19,3.7,3.7c0.16,0.26,0.32,0.51,0.49,0.74c0.18,0.25,0.43,0.43,0.72,0.53
			c1.02,0.34,2.09,0.52,3.18,0.52c1.09,0,2.15-0.17,3.17-0.51c0.29-0.1,0.54-0.29,0.73-0.53c0.17-0.23,0.34-0.48,0.5-0.75
			c0.91-1.51,2.19-2.79,3.7-3.7c0.26-0.16,0.51-0.32,0.75-0.5c0.25-0.18,0.43-0.43,0.53-0.72c0.69-2.06,0.69-4.29,0-6.35
			c-0.1-0.29-0.29-0.54-0.53-0.72c-0.24-0.18-0.49-0.34-0.76-0.5c-1.51-0.91-2.78-2.18-3.69-3.69C20.24,7.64,20.07,7.39,19.9,7.16z"
			/>
		<path class="st1" d="M16,8.95c0.75,0,1.47,0.34,2.1,0.99c0.14,0.15,0.31,0.27,0.5,0.36c0.68,0.31,1.27,0.76,1.81,1.3
			c0.54,0.54,0.99,1.12,1.3,1.81c0.09,0.19,0.21,0.36,0.36,0.5c0.65,0.63,0.99,1.35,0.99,2.1c0,0.75-0.34,1.47-0.99,2.1
			c-0.15,0.14-0.27,0.31-0.36,0.5c-0.31,0.68-0.73,1.3-1.27,1.83c-0.53,0.53-1.15,0.96-1.83,1.27c-0.19,0.09-0.36,0.21-0.5,0.36
			c-0.63,0.65-1.35,0.99-2.1,0.99c-0.75,0-1.47-0.34-2.1-0.99c-0.14-0.15-0.31-0.27-0.5-0.36c-0.68-0.31-1.3-0.73-1.83-1.27
			c-0.53-0.53-0.96-1.15-1.27-1.83c-0.09-0.19-0.21-0.36-0.36-0.5c-0.65-0.63-0.99-1.35-0.99-2.1c0-0.75,0.34-1.47,0.99-2.1
			c0.15-0.14,0.27-0.31,0.36-0.5c0.31-0.68,0.74-1.3,1.27-1.83c0.54-0.54,1.15-0.96,1.83-1.27c0.19-0.09,0.36-0.21,0.5-0.36
			C14.53,9.29,15.25,8.95,16,8.95L16,8.95z M18.55,10.79c-0.2-0.3-0.49-0.53-0.84-0.63C17.16,10,16.58,9.91,16,9.91
			c-0.58,0-1.15,0.08-1.7,0.24c-0.35,0.1-0.66,0.34-0.86,0.64c-0.05,0.07-0.09,0.14-0.13,0.21c-0.57,0.94-1.36,1.73-2.3,2.3
			c-0.07,0.04-0.14,0.09-0.21,0.13c-0.31,0.2-0.54,0.5-0.64,0.86c-0.33,1.13-0.32,2.32,0.01,3.44c0.1,0.33,0.31,0.6,0.6,0.79
			l0.02,0.01c1.06,0.7,1.96,1.61,2.66,2.66l0.01,0.02c0.19,0.28,0.47,0.5,0.79,0.6C14.82,22,15.4,22.08,16,22.08
			c0.58,0,1.16-0.08,1.71-0.24c0.35-0.1,0.64-0.33,0.84-0.63c0.05-0.07,0.09-0.14,0.14-0.22c0.57-0.94,1.36-1.73,2.3-2.3
			c0.07-0.04,0.15-0.09,0.22-0.14c0.3-0.2,0.53-0.49,0.63-0.84c0.33-1.12,0.33-2.3,0-3.42c-0.1-0.35-0.33-0.64-0.63-0.84
			c-0.04-0.03-0.09-0.06-0.13-0.08c-0.99-0.62-1.83-1.46-2.45-2.45C18.61,10.87,18.58,10.83,18.55,10.79z"/>
	</g>
</g>
</svg>
