<?xml version="1.0" encoding="utf-8"?>
<!-- Generator: Adobe Illustrator 26.5.0, SVG Export Plug-In . SVG Version: 6.00 Build 0)  -->
<svg version="1.1" id="Layer_1" xmlns="http://www.w3.org/2000/svg" xmlns:xlink="http://www.w3.org/1999/xlink" x="0px" y="0px"
	 viewBox="0 0 1500 355.24" style="enable-background:new 0 0 1500 355.24;" xml:space="preserve">
<style type="text/css">
	.st0{fill:#F5F5F5;}
</style>
<g>
	<g>
		<g>
			<path class="st0" d="M177.62,355.24c-19.54,0-38.36-9.36-54.7-27.15c-2.24-2.44-4.96-4.42-8.01-5.73
				c-18.29-7.85-34.72-19-48.9-33.18c-14.18-14.18-25.32-30.61-33.17-48.9c-1.31-3.05-3.28-5.76-5.72-8
				C9.32,215.94-0.02,197.13,0,177.62c-0.03-19.51,9.32-38.32,27.1-54.66c2.44-2.24,4.42-4.96,5.73-8
				c7.85-18.29,19-34.72,33.18-48.9c14.18-14.18,30.61-25.32,48.9-33.18c3.05-1.31,5.76-3.28,8-5.72C139.26,9.36,158.08,0,177.62,0
				c19.59,0,38.4,9.38,54.72,27.18c2.24,2.45,4.96,4.43,8.01,5.74c18.25,7.85,34.64,18.98,48.79,33.13
				c14.15,14.15,25.28,30.54,33.13,48.79c1.31,3.05,3.29,5.77,5.74,8.01c17.84,16.36,27.23,35.2,27.23,54.77
				c0,19.58-9.39,38.42-27.23,54.77c-2.45,2.24-4.43,4.96-5.74,8.01c-7.85,18.25-18.98,34.64-33.13,48.79
				c-14.15,14.15-30.54,25.28-48.79,33.13c-3.05,1.31-5.77,3.29-8.01,5.74c-16.33,17.81-35.13,27.18-54.65,27.18H177.62z
				 M116.58,316.06c2.86,3.87,6.83,6.81,11.39,8.34c15.95,5.35,32.6,8.05,49.6,8.05c17.07,0,33.79-2.73,49.8-8.12
				c4.53-1.53,8.45-4.46,11.29-8.31c2.69-3.65,5.28-7.54,7.74-11.63c14.23-23.68,34.28-43.73,57.98-57.97
				c4.08-2.45,7.96-5.03,11.59-7.71c3.85-2.84,6.79-6.76,8.31-11.29c10.91-32.37,10.91-67.22,0-99.59
				c-1.53-4.53-4.47-8.45-8.31-11.29c-3.65-2.69-7.54-5.29-11.64-7.75c-23.68-14.23-43.72-34.28-57.97-57.98
				c-2.45-4.08-5.03-7.96-7.71-11.59c-2.84-3.85-6.76-6.79-11.29-8.31c-16.01-5.39-32.73-8.12-49.8-8.12
				c-17,0-33.66,2.71-49.61,8.06c-4.56,1.53-8.52,4.46-11.38,8.33c-2.72,3.67-5.33,7.59-7.81,11.71
				c-14.25,23.66-34.29,43.71-57.98,57.96c-4.11,2.47-8.01,5.08-11.67,7.79c-3.84,2.84-6.77,6.77-8.3,11.3
				c-10.87,32.31-10.86,67.09,0,99.4c1.52,4.53,4.46,8.45,8.3,11.3c3.71,2.75,7.67,5.39,11.84,7.89
				c23.68,14.22,43.56,34.13,57.78,57.8C111.24,308.45,113.86,312.38,116.58,316.06z"/>
			<path class="st0" d="M177.62,287.99c-11.7,0-22.94-5.33-32.81-15.47c-2.26-2.32-4.89-4.28-7.84-5.62
				c-10.7-4.83-19.91-11.93-28.29-20.31c-8.38-8.38-15.48-17.6-20.31-28.29c-1.33-2.95-3.29-5.58-5.61-7.83
				c-10.17-9.89-15.5-21.16-15.5-32.85c-0.01-11.7,5.33-22.97,15.53-32.86c2.32-2.26,4.29-4.89,5.63-7.84
				c4.83-10.67,11.49-20.29,19.85-28.64c8.36-8.36,17.98-15.02,28.65-19.85c2.95-1.34,5.58-3.3,7.84-5.62
				c9.89-10.2,21.18-15.55,32.89-15.55c11.71,0,22.99,5.36,32.88,15.55c2.26,2.33,4.89,4.29,7.84,5.63
				c10.67,4.83,20.29,11.49,28.65,19.85c8.36,8.36,15.02,17.98,19.85,28.64c1.34,2.95,3.3,5.58,5.62,7.84
				c10.19,9.89,15.54,21.16,15.53,32.86c0,11.69-5.34,22.96-15.5,32.84c-2.32,2.26-4.29,4.89-5.62,7.84
				c-4.83,10.7-11.51,20.34-19.89,28.72c-8.38,8.38-18.02,15.05-28.72,19.89c-2.95,1.33-5.58,3.3-7.84,5.61
				c-9.87,10.14-21.11,15.47-32.77,15.47H177.62z M137.71,259.23c3.12,4.71,7.72,8.3,13.15,9.87c8.66,2.51,17.63,3.78,26.77,3.78
				c9.07,0,17.97-1.25,26.57-3.73c5.55-1.6,10.27-5.27,13.45-10.09c0.71-1.07,1.4-2.17,2.08-3.3c8.9-14.78,21.28-27.15,36.06-36.05
				c1.11-0.67,2.2-1.36,3.26-2.05c4.82-3.18,8.49-7.9,10.09-13.45c5.09-17.63,5.01-36.27-0.22-53.87c-1.52-5.1-4.91-9.45-9.34-12.39
				l-0.35-0.23c-16.53-10.99-30.7-25.16-41.69-41.69l-0.22-0.32c-2.95-4.44-7.3-7.83-12.41-9.35c-8.83-2.62-17.97-3.94-27.3-3.94
				c-9.16,0-18.14,1.28-26.82,3.8c-5.42,1.58-10.03,5.17-13.14,9.89c-0.73,1.11-1.45,2.25-2.15,3.42
				c-8.88,14.78-21.26,27.14-36.04,36.03c-1.15,0.69-2.28,1.4-3.37,2.13c-4.72,3.11-8.31,7.72-9.9,13.15
				c-5.11,17.52-5.12,36.06-0.02,53.58c1.58,5.42,5.17,10.03,9.87,13.15c0.67,0.44,1.35,0.88,2.04,1.32
				c15.55,9.73,28.59,22.78,38.33,38.33C136.84,257.9,137.27,258.57,137.71,259.23z"/>
		</g>
		<g>
			<path class="st0" d="M613.84,76.95l-81.15,201.33h-24.43L427.24,76.95h24.71l68.66,172.83l68.52-172.83H613.84z"/>
			<path class="st0" d="M679.68,282.08c-20.64,0-37.91-7.16-51.67-21.62c-13.76-14.46-20.64-32.43-20.64-54.06
				c0-21.48,6.88-39.31,20.64-53.63c13.76-14.32,31.03-21.48,51.67-21.48c25.13,0,44.09,9.83,56.86,29.34V134.8h22.04v143.49h-22.04
				v-26.11c-12.5,19.94-31.45,29.9-56.72,29.9H679.68z M682.77,262.14c15.02,0,27.8-5.34,38.33-15.87
				c10.53-10.53,15.86-23.73,15.86-39.45s-5.33-28.92-15.86-39.45c-10.53-10.53-23.31-15.86-38.19-15.86
				c-15.73,0-28.64,5.2-38.75,15.58c-10.11,10.39-15.16,23.59-15.16,39.73c0,15.87,5.05,29.06,15.16,39.45
				c10.11,10.39,23.03,15.58,38.75,15.58L682.77,262.14z"/>
			<path class="st0" d="M876.93,131.43c17.83,0,31.87,5.62,42.12,16.71c10.25,11.09,15.45,26.4,15.45,45.91v84.24h-22.18v-81.15
				c0-14.18-3.51-25.27-10.53-33.14c-7.02-7.86-16.99-11.79-29.91-11.79c-14.46,0-26.11,4.91-34.96,14.88
				c-8.85,9.97-13.34,23.03-13.34,39.17v72.17h-22.04V134.94h22.04v25.27c5.34-8.57,12.64-15.58,21.76-20.92
				c9.13-5.33,19.66-8,31.59-8V131.43z"/>
			<path class="st0" d="M1060.99,273.94c-9.69,4.21-19.66,6.32-29.91,6.32c-14.04,0-24.57-4.07-31.59-12.22
				c-7.02-8.14-10.53-19.23-10.53-33.41v-79.75h-28.5V134.8h28.5V85.37H1011v49.42h49.28v20.08H1011v79.75
				c0,16.85,7.72,25.27,23.31,25.27c7.16,0,14.04-1.68,20.64-4.92L1060.99,273.94z"/>
			<path class="st0" d="M1222.86,135.08v143.49h-22.18v-24.99c-11.65,19.24-29.34,28.78-52.93,28.78
				c-18.11,0-32.29-5.62-42.54-16.71c-10.25-11.09-15.3-26.54-15.3-46.33v-84.24h22.18v81.15c0,14.18,3.51,25.27,10.53,33.13
				s16.99,11.8,29.77,11.8c14.6,0,26.25-5.06,35.1-15.02c8.85-9.97,13.2-23.03,13.2-39.17V134.8L1222.86,135.08z"/>
			<path class="st0" d="M1288.14,159.51c4.35-9.69,10.95-16.99,19.8-21.76c8.84-4.77,19.37-6.32,31.59-4.49v20.64
				c-16.15-2.11-28.78,1.41-37.91,10.67c-9.13,9.27-13.62,24.85-13.62,46.75v66.97h-22.04V134.8H1288v24.71H1288.14z"/>
			<path class="st0" d="M1421.09,282.08c-20.64,0-37.91-7.16-51.67-21.62c-13.76-14.46-20.64-32.43-20.64-54.06
				c0-21.48,6.88-39.31,20.64-53.63c13.76-14.32,31.03-21.48,51.67-21.48c25.13,0,44.09,9.83,56.86,29.34V134.8H1500v143.49h-22.04
				v-26.11c-12.5,19.94-31.45,29.9-56.72,29.9H1421.09z M1424.18,262.14c15.02,0,27.8-5.34,38.33-15.87
				c10.53-10.53,15.87-23.73,15.87-39.45s-5.33-28.92-15.87-39.45c-10.53-10.53-23.31-15.86-38.19-15.86
				c-15.73,0-28.64,5.2-38.75,15.58c-10.11,10.39-15.17,23.59-15.17,39.73c0,15.87,5.06,29.06,15.17,39.45
				c10.11,10.39,23.02,15.58,38.75,15.58L1424.18,262.14z"/>
		</g>
	</g>
</g>
</svg>
